<?xml version="1.0"?>
<svg version="1.1" xmlns="http://www.w3.org/2000/svg">
<path fill="none" stroke="red" d="M 0.0 631.3 l 9.0 0.0 M 9.0 631.3 l 4.5 -7.8 M 13.5 623.5 l 4.5 7.8 M 18.0 631.3 l 9.0 0.0 M 22.5 639.1 l 4.5 -7.8 M 27.0 631.3 l -4.5 -7.8 M 22.5 623.5 l 9.0 0.0 M 31.5 623.5 l 4.5 -7.8 M 40.5 623.5 l 4.5 7.8 M 45.0 631.3 l 9.0 0.0 M 54.0 631.3 l -4.5 7.8 M 49.5 639.1 l 4.5 7.8 M 45.0 646.9 l 9.0 0.0 M 54.0 646.9 l 4.5 -7.8 M 58.5 639.1 l 4.5 7.8 M 63.0 646.9 l 9.0 0.0 M 121.5 654.7 l 4.5 -7.8 M 126.0 646.9 l -4.5 -7.8 M 121.5 639.1 l 9.0 0.0 M 130.5 639.1 l 4.5 -7.8 M 139.5 639.1 l -4.5 -7.8 M 135.0 631.3 l -9.0 0.0 M 126.0 631.3 l 4.5 -7.8 M 130.5 623.5 l -4.5 -7.8 M 135.0 615.7 l 9.0 0.0 M 144.0 615.7 l 4.5 -7.8 M 148.5 607.9 l 4.5 7.8 M 153.0 615.7 l 9.0 0.0 M 157.5 623.5 l 4.5 -7.8 M 162.0 615.7 l -4.5 -7.8 M 157.5 607.9 l 9.0 0.0 M 166.5 607.9 l 4.5 -7.8 M 202.5 561.2 l 4.5 7.8 M 207.0 569.0 l 9.0 0.0 M 216.0 569.0 l -4.5 7.8 M 211.5 576.8 l 4.5 7.8 M 207.0 584.6 l 9.0 0.0 M 216.0 584.6 l 4.5 -7.8 M 220.5 576.8 l 4.5 7.8 M 225.0 584.6 l 9.0 0.0 M 229.5 592.4 l -4.5 7.8 M 225.0 600.2 l 4.5 7.8 M 229.5 607.9 l -9.0 0.0 M 220.5 607.9 l -4.5 7.8 M 211.5 607.9 l 4.5 7.8 M 216.0 615.7 l 9.0 0.0 M 225.0 615.7 l -4.5 7.8 M 220.5 623.5 l 4.5 7.8 M 243.0 678.1 l 9.0 0.0 M 252.0 678.1 l 4.5 -7.8 M 256.5 670.3 l 4.5 7.8 M 261.0 678.1 l 9.0 0.0 M 265.5 685.9 l 4.5 -7.8 M 270.0 678.1 l -4.5 -7.8 M 265.5 670.3 l 9.0 0.0 M 274.5 670.3 l 4.5 -7.8 M 283.5 670.3 l 4.5 7.8 M 288.0 678.1 l 9.0 0.0 M 297.0 678.1 l -4.5 7.8 M 292.5 685.9 l 4.5 7.8 M 288.0 693.7 l 9.0 0.0 M 297.0 693.7 l 4.5 -7.8 M 301.5 685.9 l 4.5 7.8 M 306.0 693.7 l 9.0 0.0 M 526.5 701.5 l 4.5 -7.8 M 531.0 693.7 l -4.5 -7.8 M 526.5 685.9 l 9.0 0.0 M 535.5 685.9 l 4.5 -7.8 M 544.5 685.9 l -4.5 -7.8 M 540.0 678.1 l -9.0 0.0 M 531.0 678.1 l 4.5 -7.8 M 535.5 670.3 l -4.5 -7.8 M 540.0 662.5 l 9.0 0.0 M 549.0 662.5 l 4.5 -7.8 M 553.5 654.7 l 4.5 7.8 M 558.0 662.5 l 9.0 0.0 M 562.5 670.3 l 4.5 -7.8 M 567.0 662.5 l -4.5 -7.8 M 562.5 654.7 l 9.0 0.0 M 571.5 654.7 l 4.5 -7.8 M 607.5 607.9 l -4.5 -7.8 M 603.0 600.2 l -9.0 0.0 M 594.0 600.2 l 4.5 -7.8 M 598.5 592.4 l -4.5 -7.8 M 603.0 584.6 l -9.0 0.0 M 594.0 584.6 l -4.5 7.8 M 589.5 592.4 l -4.5 -7.8 M 585.0 584.6 l -9.0 0.0 M 580.5 576.8 l 4.5 -7.8 M 585.0 569.0 l -4.5 -7.8 M 580.5 561.2 l 9.0 0.0 M 589.5 561.2 l 4.5 -7.8 M 598.5 561.2 l -4.5 -7.8 M 594.0 553.4 l -9.0 0.0 M 585.0 553.4 l 4.5 -7.8 M 589.5 545.6 l -4.5 -7.8 M 567.0 491.0 l 9.0 0.0 M 576.0 491.0 l 4.5 -7.8 M 580.5 483.2 l 4.5 7.8 M 585.0 491.0 l 9.0 0.0 M 589.5 498.8 l 4.5 -7.8 M 594.0 491.0 l -4.5 -7.8 M 589.5 483.2 l 9.0 0.0 M 598.5 483.2 l 4.5 -7.8 M 607.5 483.2 l 4.5 7.8 M 612.0 491.0 l 9.0 0.0 M 621.0 491.0 l -4.5 7.8 M 616.5 498.8 l 4.5 7.8 M 612.0 506.6 l 9.0 0.0 M 621.0 506.6 l 4.5 -7.8 M 625.5 498.8 l 4.5 7.8 M 630.0 506.6 l 9.0 0.0 M 688.5 514.4 l 4.5 -7.8 M 693.0 506.6 l -4.5 -7.8 M 688.5 498.8 l 9.0 0.0 M 697.5 498.8 l 4.5 -7.8 M 706.5 498.8 l -4.5 -7.8 M 702.0 491.0 l -9.0 0.0 M 693.0 491.0 l 4.5 -7.8 M 697.5 483.2 l -4.5 -7.8 M 702.0 475.4 l 9.0 0.0 M 711.0 475.4 l 4.5 -7.8 M 715.5 467.7 l 4.5 7.8 M 720.0 475.4 l 9.0 0.0 M 724.5 483.2 l 4.5 -7.8 M 729.0 475.4 l -4.5 -7.8 M 724.5 467.7 l 9.0 0.0 M 733.5 467.7 l 4.5 -7.8 M 850.5 280.6 l 4.5 7.8 M 855.0 288.4 l 9.0 0.0 M 864.0 288.4 l -4.5 7.8 M 859.5 296.2 l 4.5 7.8 M 855.0 304.0 l 9.0 0.0 M 864.0 304.0 l 4.5 -7.8 M 868.5 296.2 l 4.5 7.8 M 873.0 304.0 l 9.0 0.0 M 877.5 311.8 l -4.5 7.8 M 873.0 319.6 l 4.5 7.8 M 877.5 327.4 l -9.0 0.0 M 868.5 327.4 l -4.5 7.8 M 859.5 327.4 l 4.5 7.8 M 864.0 335.2 l 9.0 0.0 M 873.0 335.2 l -4.5 7.8 M 868.5 342.9 l 4.5 7.8 M 891.0 397.5 l 9.0 0.0 M 900.0 397.5 l 4.5 -7.8 M 904.5 389.7 l 4.5 7.8 M 909.0 397.5 l 9.0 0.0 M 913.5 405.3 l 4.5 -7.8 M 918.0 397.5 l -4.5 -7.8 M 913.5 389.7 l 9.0 0.0 M 922.5 389.7 l 4.5 -7.8 M 931.5 389.7 l 4.5 7.8 M 936.0 397.5 l 9.0 0.0 M 945.0 397.5 l -4.5 7.8 M 940.5 405.3 l 4.5 7.8 M 936.0 413.1 l 9.0 0.0 M 945.0 413.1 l 4.5 -7.8 M 949.5 405.3 l 4.5 7.8 M 954.0 413.1 l 9.0 0.0 M 1012.5 420.9 l -4.5 7.8 M 1008.0 428.7 l 4.5 7.8 M 1012.5 436.5 l -9.0 0.0 M 1003.5 436.5 l -4.5 7.8 M 994.5 436.5 l 4.5 7.8 M 999.0 444.3 l 9.0 0.0 M 1008.0 444.3 l -4.5 7.8 M 1003.5 452.1 l 4.5 7.8 M 999.0 459.9 l -9.0 0.0 M 990.0 459.9 l -4.5 7.8 M 985.5 467.7 l -4.5 -7.8 M 981.0 459.9 l -9.0 0.0 M 976.5 452.1 l -4.5 7.8 M 972.0 459.9 l 4.5 7.8 M 976.5 467.7 l -9.0 0.0 M 967.5 467.7 l -4.5 7.8 M 931.5 514.4 l 4.5 7.8 M 936.0 522.2 l 9.0 0.0 M 945.0 522.2 l -4.5 7.8 M 940.5 530.0 l 4.5 7.8 M 936.0 537.8 l 9.0 0.0 M 945.0 537.8 l 4.5 -7.8 M 949.5 530.0 l 4.5 7.8 M 954.0 537.8 l 9.0 0.0 M 958.5 545.6 l -4.5 7.8 M 954.0 553.4 l 4.5 7.8 M 958.5 561.2 l -9.0 0.0 M 949.5 561.2 l -4.5 7.8 M 940.5 561.2 l 4.5 7.8 M 945.0 569.0 l 9.0 0.0 M 954.0 569.0 l -4.5 7.8 M 949.5 576.8 l 4.5 7.8 M 1053.0 771.6 l 9.0 0.0 M 1062.0 771.6 l 4.5 -7.8 M 1066.5 763.8 l 4.5 7.8 M 1071.0 771.6 l 9.0 0.0 M 1075.5 779.4 l 4.5 -7.8 M 1080.0 771.6 l -4.5 -7.8 M 1075.5 763.8 l 9.0 0.0 M 1084.5 763.8 l 4.5 -7.8 M 1093.5 763.8 l 4.5 7.8 M 1098.0 771.6 l 9.0 0.0 M 1107.0 771.6 l -4.5 7.8 M 1102.5 779.4 l 4.5 7.8 M 1098.0 787.2 l 9.0 0.0 M 1107.0 787.2 l 4.5 -7.8 M 1111.5 779.4 l 4.5 7.8 M 1116.0 787.2 l 9.0 0.0 M 1174.5 795.0 l 4.5 -7.8 M 1179.0 787.2 l -4.5 -7.8 M 1174.5 779.4 l 9.0 0.0 M 1183.5 779.4 l 4.5 -7.8 M 1192.5 779.4 l -4.5 -7.8 M 1188.0 771.6 l -9.0 0.0 M 1179.0 771.6 l 4.5 -7.8 M 1183.5 763.8 l -4.5 -7.8 M 1188.0 756.0 l 9.0 0.0 M 1197.0 756.0 l 4.5 -7.8 M 1201.5 748.2 l 4.5 7.8 M 1206.0 756.0 l 9.0 0.0 M 1210.5 763.8 l 4.5 -7.8 M 1215.0 756.0 l -4.5 -7.8 M 1210.5 748.2 l 9.0 0.0 M 1219.5 748.2 l 4.5 -7.8 M 1255.5 701.5 l 4.5 7.8 M 1260.0 709.3 l 9.0 0.0 M 1269.0 709.3 l -4.5 7.8 M 1264.5 717.1 l 4.5 7.8 M 1260.0 724.9 l 9.0 0.0 M 1269.0 724.9 l 4.5 -7.8 M 1273.5 717.1 l 4.5 7.8 M 1278.0 724.9 l 9.0 0.0 M 1282.5 732.7 l -4.5 7.8 M 1278.0 740.5 l 4.5 7.8 M 1282.5 748.2 l -9.0 0.0 M 1273.5 748.2 l -4.5 7.8 M 1264.5 748.2 l 4.5 7.8 M 1269.0 756.0 l 9.0 0.0 M 1278.0 756.0 l -4.5 7.8 M 1273.5 763.8 l 4.5 7.8 M 1296.0 818.4 l 9.0 0.0 M 1305.0 818.4 l 4.5 -7.8 M 1309.5 810.6 l 4.5 7.8 M 1314.0 818.4 l 9.0 0.0 M 1318.5 826.2 l 4.5 -7.8 M 1323.0 818.4 l -4.5 -7.8 M 1318.5 810.6 l 9.0 0.0 M 1327.5 810.6 l 4.5 -7.8 M 1336.5 810.6 l 4.5 7.8 M 1341.0 818.4 l 9.0 0.0 M 1350.0 818.4 l -4.5 7.8 M 1345.5 826.2 l 4.5 7.8 M 1341.0 834.0 l 9.0 0.0 M 1350.0 834.0 l 4.5 -7.8 M 1354.5 826.2 l 4.5 7.8 M 1359.0 834.0 l 9.0 0.0 z"/>
</svg>
